<?xml version="1.0" encoding="UTF-8"?>
<svg id="XDC_PAYMENTS" xmlns="http://www.w3.org/2000/svg" version="1.1" viewBox="0 0 1168.6 374.4">
  <!-- Generator: Adobe Illustrator 29.3.1, SVG Export Plug-In . SVG Version: 2.1.0 Build 151)  -->
  <defs>
    <style>
      .st0 {
        fill: #416baa;
      }

      .st1 {
        fill: #15294c;
      }

      .st2 {
        fill: #254c82;
      }

      .st3 {
        fill: #b8b5b1;
      }
    </style>
  </defs>
  <g id="Layer_2">
    <g>
      <g>
        <path class="st0" d="M724.8,335c0,12-8.7,19.3-23.1,19.3h-12.2c-.9,0-1.5.7-1.5,1.5v13.7c0,.9-.7,1.5-1.5,1.5h-4.8c-.9,0-1.5-.7-1.5-1.5v-52.4c0-.9.7-1.5,1.5-1.5h20.1c14.4,0,23.1,7.3,23.1,19.3ZM716.8,335c0-7.9-5.3-12.4-15.4-12.4h-13.5v24.9h13.5c10.1,0,15.4-4.5,15.4-12.4ZM767,357.3h-29.5l-5.7,12.9c-.2.6-.8.9-1.4.9h-4.8c-1.1,0-1.9-1.2-1.4-2.2l23.7-52.4c.2-.6.8-.9,1.4-.9h5.9c.6,0,1.2.4,1.4.9l23.8,52.4c.5,1-.3,2.2-1.4,2.2h-4.9c-.6,0-1.2-.4-1.4-.9l-5.7-12.9ZM764.2,351l-12-27.2-11,25c-.4,1,.3,2.2,1.4,2.2h21.6ZM805.6,352.4v17.2c0,.9-.7,1.5-1.5,1.5h-4.8c-.9,0-1.5-.7-1.5-1.5v-17.3c0-.3,0-.6-.2-.8l-20.4-33.4c-.6-1,.1-2.3,1.3-2.3h4.9c.5,0,1,.3,1.3.7l17.3,28.5,17.4-28.5c.3-.5.8-.7,1.3-.7h4.2c1.2,0,1.9,1.3,1.3,2.3l-20.4,33.6c-.1.2-.2.5-.2.8ZM884.1,369.6v-38.9c0,0-19.7,32.9-19.7,32.9-.3.5-.8.8-1.3.8h-1.9c-.5,0-1-.3-1.3-.8l-19.6-32.7v38.6c0,.9-.7,1.5-1.5,1.5h-4.5c-.9,0-1.5-.7-1.5-1.5v-52.4c0-.9.7-1.5,1.5-1.5h4.1c.5,0,1.1.3,1.3.8l22.7,38.2,22.4-38.2c.3-.5.8-.8,1.3-.8h4.1c.9,0,1.5.7,1.5,1.5v52.4c0,.9-.6,1.5-1.5,1.5h-4.5c-.9,0-1.5-.7-1.5-1.5ZM946.6,365.8v3.8c0,.9-.7,1.5-1.5,1.5h-37.2c-.9,0-1.5-.7-1.5-1.5v-52.4c0-.9.7-1.5,1.5-1.5h36c.9,0,1.5.7,1.5,1.5v3.8c0,.9-.7,1.5-1.5,1.5h-29.7v17h26.3c.9,0,1.5.7,1.5,1.5v3.7c0,.9-.7,1.5-1.5,1.5h-26.3v17.9h30.8c.9,0,1.5.7,1.5,1.5ZM1005.1,317.2v52.4c0,.9-.7,1.5-1.5,1.5h-4.2c-.5,0-.9-.2-1.2-.6l-32.8-40.8v39.8c0,.9-.7,1.5-1.5,1.5h-4.8c-.9,0-1.5-.7-1.5-1.5v-52.4c0-.9.7-1.5,1.5-1.5h4.2c.5,0,.9.2,1.2.6l32.8,40.8v-39.8c0-.9.7-1.5,1.5-1.5h4.8c.9,0,1.5.7,1.5,1.5ZM1030.8,322.6h-17.5c-.9,0-1.5-.7-1.5-1.5v-3.8c0-.9.7-1.5,1.5-1.5h42.8c.9,0,1.5.7,1.5,1.5v3.8c0,.9-.7,1.5-1.5,1.5h-17.5v47c0,.9-.7,1.5-1.5,1.5h-4.8c-.9,0-1.5-.7-1.5-1.5v-47ZM1059,363.7l1.6-3.4c.4-.9,1.5-1.1,2.3-.6,4.2,3.1,10.5,5.2,16.8,5.2,9.6,0,13.7-3.7,13.7-8.6,0-13.5-33.6-5-33.6-25.6s6.7-15.8,21.2-15.8,12.2,1.5,16.7,4.2c.7.4.9,1.2.6,1.9l-1.4,3.5c-.3.8-1.4,1.2-2.2.8-4.4-2.5-9.3-3.6-13.7-3.6-9.4,0-13.5,4-13.5,8.8,0,13.5,33.6,5.1,33.6,25.4s-6.8,15.8-21.5,15.8-15.7-2.5-20.3-6.2c-.6-.5-.7-1.2-.4-1.9Z"/>
        <g>
          <path class="st1" d="M976.4,217.8c-13.2-13.3-19.9-36.2-19.9-68.5s6.5-55.2,19.7-68.6c13.2-13.4,38.1-20.2,74.7-20.2h117.5c0,0-45.8-57.8-45.8-57.8h-73.9c-59.1.2-102.1,12-128.9,35.7-12.3,10.6-21.6,24.4-28.2,40.7,7.4,20,11.1,43.5,11.1,70.3s-3.7,50.2-11,70.3c6.7,16.3,16,30,28.3,40.7,26.9,23.5,69.9,35.3,129,35.2h68.4c0-.1,45.3-57.9,45.3-57.9h-111.6c-36.5,0-61.4-6.6-74.7-19.9Z"/>
          <path class="st1" d="M658.6,3.1h-52.1c0,0-14.5,0-14.5,0-13.8.2-25.7,6.6-35.7,19.4l-55.9,71.1-56-71c-10.3-12.9-22.2-19.3-35.8-19.3h-43.9c-7.5,0-11.2,3.1-11.2,9.4s1.4,6.5,4.3,10l97.1,122.8-102.8,131.5c-2.9,3.7-4.3,7-4.3,10,.8,6.1,4.6,9.2,11.4,9.2h43.5c13.6,0,25.5-6.4,35.5-19.2l62.2-79.5,62.4,79.4c10.1,12.8,21.9,19.2,35.6,19.2h66c0-.1-118.4-150.6-118.4-150.6L658.6,3.1Z"/>
          <path class="st1" d="M850.2,260.4c12.3-10.8,21.6-24.5,28.2-40.8,2.6-6.4,4.9-13.1,6.6-20.3,3.6-14.9,5.4-31.5,5.4-49.9s-1.9-35.1-5.5-49.9c-1.8-7.2-4.1-14-6.7-20.3-6.7-16.3-16-30-28.3-40.8-26.9-23.6-69.9-35.4-129-35.3h-46.7s-45.7,57.9-45.7,57.9h90.2c36.6,0,61.6,6.5,74.8,19.9,13.2,13.4,19.9,36.3,19.9,68.6s-6.5,55.2-19.7,68.5c-13.2,13.4-38.1,20.1-74.7,20.1h-84.4c0,.1,45.5,57.8,45.5,57.8h41.2c59.1,0,102-11.9,128.9-35.5Z"/>
          <polygon class="st0" points="620.7 220 620.5 71.5 562.1 145.8 620.7 220"/>
        </g>
      </g>
      <g>
        <g id="Shape_1">
          <path class="st3" d="M293.5,135.2C259.8-60,5-22.2.4,135.2c14.7,7.6,23.9,12.3,23.9,12.3,0,0-7.8,4.7-24.1,15.1,29.5,191.3,280,163.5,293.3-.3-15.9-9.8-24.6-14.9-24.6-14.9,0,0,7.4-3.6,24.6-12.2ZM168.1,203.3l-23.9-41.1-24.3,41.1-18.4-1.3,34.6-58.3-31.2-50.3,18.8-1.7,22.2,37.3,22.2-35.6,17.5.4-29,49.5,32,59.5-20.5.5Z"/>
        </g>
        <g id="Shape_11" data-name="Shape_1">
          <path class="st2" d="M281.6,127.5C236-45.9,26.6,1,12.3,127.5c29,16.3,35.6,20.2,35.6,20.2,0,0-11.2,7.2-35.7,22.7,31.2,166.7,257,134.7,269.4-.2-22.8-14.3-36.2-22.6-36.2-22.6,0,0,30.7-17.1,36.2-20.1ZM168.1,203.5l-23.9-41.1-24.3,41.1-18.4-1.3,34.6-58.3-31.2-50.3,18.8-1.7,22.2,37.3,22.2-35.6,17.5.4-29,49.5,32,59.5-20.5.5Z"/>
        </g>
      </g>
    </g>
  </g>
</svg>